<?xml version="1.0" encoding="UTF-8"?>
<svg version="1.1" xmlns="http://www.w3.org/2000/svg" width="1244" height="1244">
<path d="M0 0 C410.52 0 821.04 0 1244 0 C1244 410.52 1244 821.04 1244 1244 C833.48 1244 422.96 1244 0 1244 C0 833.48 0 422.96 0 0 Z " fill="#ABC3E0" transform="translate(0,0)"/>
<path d="M0 0 C0.89589844 0.01804687 1.79179688 0.03609375 2.71484375 0.0546875 C14.68824513 0.71448596 25.70174755 6.09451693 33.7421875 14.91015625 C43.69528262 27.36390462 44.30301937 41.44185497 44.25396729 56.79325867 C44.25627521 58.37527399 44.25945396 59.95728823 44.26342177 61.53930026 C44.27173322 65.86179144 44.26766113 70.18419374 44.26144934 74.50668514 C44.25691066 79.17828577 44.26391574 83.84987148 44.26940918 88.52146912 C44.27829077 97.66477984 44.27638636 106.80805767 44.2705839 115.95136967 C44.26606118 123.3870905 44.26545715 130.82280213 44.26763153 138.25852394 C44.267938 139.3181527 44.26824446 140.37778146 44.26856022 141.46952019 C44.26919969 143.62241961 44.26984812 145.77531904 44.2705054 147.92821846 C44.27620544 168.10610193 44.26965663 188.28396721 44.25890467 208.4618477 C44.24997593 225.75281319 44.25151625 243.0437518 44.26074219 260.3347168 C44.27146174 280.43425002 44.27564935 300.5337673 44.26951766 320.63330299 C44.2688806 322.77966773 44.26825185 324.92603248 44.26763153 327.07239723 C44.2671687 328.65628036 44.2671687 328.65628036 44.26669653 330.27216112 C44.26497416 337.69121219 44.26787493 345.1102531 44.27259064 352.5293026 C44.27821849 361.58215558 44.27664339 370.63497391 44.26602915 379.68782296 C44.260797 384.30143301 44.2586734 388.91498543 44.26532745 393.52859497 C44.2713407 397.76218424 44.26792434 401.99566312 44.25737235 406.22924254 C44.2551608 407.75072157 44.25622324 409.27221016 44.26112393 410.7936829 C44.31360656 428.45996338 43.92576146 445.85739949 31.1875 459.5 C17.41586809 471.93975262 2.29241449 473.64814174 -15.50683594 473.13623047 C-29.12204442 472.39227372 -39.86339795 465.8191326 -49 456 C-59.16286829 441.8977106 -59.30624741 426.32730697 -59.26069641 409.54695129 C-59.26372464 407.94213344 -59.26761746 406.33731703 -59.27228898 404.73250312 C-59.28249056 400.36572473 -59.28040742 395.99902916 -59.27610838 391.63224423 C-59.27362691 386.90625399 -59.28267264 382.18028298 -59.29014587 377.45429993 C-59.30285375 368.21395545 -59.30469162 358.97364008 -59.30234561 349.73328833 C-59.30055859 342.22135059 -59.3023203 334.70942165 -59.30657005 327.19748497 C-59.30716524 326.12614183 -59.30776043 325.05479869 -59.30837366 323.95099061 C-59.30958546 321.7742464 -59.3107996 319.59750218 -59.31201603 317.42075797 C-59.32287563 297.03886967 -59.32073605 276.65699794 -59.31463119 256.27510872 C-59.30945843 237.6411525 -59.32072977 219.0072485 -59.33972941 200.37330262 C-59.35911153 181.21679464 -59.36736347 162.06031136 -59.36360615 142.90379351 C-59.36169533 132.15794478 -59.36417059 121.41214054 -59.37832069 110.66629982 C-59.39023989 101.5226561 -59.39163297 92.37908429 -59.37953053 83.23543958 C-59.37364686 78.57366354 -59.37252846 73.91201901 -59.38453293 69.25025177 C-59.39540764 64.97751174 -59.3922696 60.70501279 -59.37827124 56.43228396 C-59.37562879 54.89215227 -59.37797657 53.35200158 -59.38600711 51.81188855 C-59.45619409 37.33936469 -57.76696135 24.66687666 -47.80859375 13.5546875 C-34.4998229 0.60907733 -17.7407401 -0.59466168 0 0 Z " fill="#3E526C" transform="translate(1099,387)"/>
<path d="M0 0 C17.16 0 34.32 0 52 0 C52.82278972 3.29115887 53.20050966 5.93301169 53.37686157 9.27871704 C53.46469469 10.8900181 53.46469469 10.8900181 53.55430222 12.5338707 C53.6145319 13.71201466 53.67476158 14.89015862 53.73681641 16.10400391 C53.80389423 17.35469791 53.87097206 18.60539192 53.94008255 19.89398575 C54.08708173 22.63534314 54.23159749 25.37681653 54.37423325 28.11840439 C54.6048516 32.55035025 54.84102954 36.98198986 55.07791138 41.41360474 C55.41897894 47.80406522 55.75760436 54.19465093 56.09460449 60.58532715 C56.94215543 76.65241114 57.80384838 92.71874105 58.66613579 108.7850399 C58.80523463 111.37738415 58.94419825 113.96973562 59.08314514 116.56208801 C60.82372383 149.02364128 62.65096661 181.47970447 64.52914429 213.93357086 C64.75069418 217.76199562 64.97194986 221.59043728 65.19311523 225.41888428 C65.75598454 235.16169651 66.31907105 244.9044961 66.88299561 254.64724731 C68.50502672 282.68121878 70.07763314 310.7177436 71.60438156 338.75705719 C71.94997048 345.09730523 72.29951615 351.43733224 72.64941406 357.77734375 C73.18070191 367.40730627 73.70721488 377.03752005 74.22926521 386.66798782 C74.51454052 391.92915436 74.80143765 397.19021846 75.09283447 402.4510498 C75.36572677 407.38009131 75.63324686 412.30939782 75.8969841 417.23893738 C75.99466767 419.04849868 76.09415027 420.85796404 76.19569778 422.66731262 C76.89365533 435.13159276 77.08499404 447.51423559 77 460 C65.78 460 54.56 460 43 460 C42.79503906 454.51761719 42.59007812 449.03523438 42.37890625 443.38671875 C42.2469016 439.87304083 42.11481176 436.3593665 41.98242188 432.84570312 C41.77319026 427.29242934 41.56424109 421.73914613 41.35717773 416.18579102 C41.18985603 411.69882795 41.02109786 407.21192084 40.85142326 402.72504616 C40.78755493 401.02983253 40.72416822 399.33460066 40.66131783 397.63934898 C40.30478502 388.03235341 39.90417868 378.43233614 39.31723118 368.8361845 C38.95553238 362.52501965 39 356.35952403 39 350 C30.75 350 22.5 350 14 350 C14.01281006 352.12614746 14.02562012 354.25229492 14.03881836 356.44287109 C14.05580214 364.94444299 13.73904655 373.4214897 13.37890625 381.9140625 C13.31379377 383.50140385 13.24893444 385.08875561 13.18431091 386.67611694 C13.01482485 390.82069426 12.84158448 394.9651064 12.66760254 399.10949707 C12.52833668 402.44265807 12.39185369 405.77593027 12.25548744 409.10921097 C11.56119728 426.07576078 10.83584107 443.03972969 10 460 C-1.55 460 -13.1 460 -25 460 C-25 441.6242804 -25 441.6242804 -24.60449219 435.14379883 C-24.5620532 434.38547603 -24.51961422 433.62715322 -24.47588921 432.84585094 C-24.33705997 430.38265262 -24.19197808 427.9198672 -24.046875 425.45703125 C-23.9454754 423.67645714 -23.84452559 421.89585737 -23.74398804 420.11523438 C-23.52935735 416.3266494 -23.31215245 412.53822494 -23.09283447 408.74990845 C-22.56181421 399.57191075 -22.04527566 390.3930911 -21.52763748 381.21433067 C-21.40995776 379.12869051 -21.29211587 377.04305949 -21.17411423 374.95743752 C-20.1800445 357.38716346 -19.24512008 339.81453885 -18.3505249 322.23895264 C-16.53352274 286.55017576 -14.59143298 250.86831317 -12.625 215.1875 C-12.58761262 214.50900372 -12.55022525 213.83050743 -12.51170492 213.13145065 C-10.06015475 168.64711358 -7.54181328 124.16680173 -4.95361328 79.69018555 C-4.89525047 78.68691066 -4.83688766 77.68363577 -4.77675629 76.64995861 C-4.49535337 71.81315738 -4.21358954 66.97637768 -3.93121338 62.13963318 C-3.41359294 53.25583443 -2.90655585 44.37163476 -2.42431641 35.48583984 C-2.37882691 34.65104568 -2.33333742 33.81625151 -2.28646946 32.95616055 C-2.07528814 29.07715355 -1.86632804 25.1980556 -1.66203308 21.31867981 C-1.58832735 19.9535784 -1.51454546 18.58848111 -1.44067383 17.22338867 C-1.37922684 16.06232101 -1.31777985 14.90125336 -1.25447083 13.70500183 C-0.94013257 9.12835221 -0.45646652 4.56466522 0 0 Z " fill="#3C506A" transform="translate(623,391)"/>
<path d="M0 0 C11.22 0 22.44 0 34 0 C34 70.29 34 140.58 34 213 C45.22 213 56.44 213 68 213 C68 142.71 68 72.42 68 0 C79.22 0 90.44 0 102 0 C102 151.8 102 303.6 102 460 C90.78 460 79.56 460 68 460 C68 387.07 68 314.14 68 239 C56.78 239 45.56 239 34 239 C34 311.93 34 384.86 34 460 C22.78 460 11.56 460 0 460 C0 308.2 0 156.4 0 0 Z " fill="#3C506A" transform="translate(470,391)"/>
<path d="M0 0 C16.83 0 33.66 0 51 0 C52.12501241 7.87508689 52.12501241 7.87508689 52.35235596 11.82978821 C52.40539226 12.72724636 52.45842855 13.62470451 52.51307201 14.54935837 C52.56708833 15.5144495 52.62110464 16.47954063 52.67675781 17.47387695 C52.73725217 18.51242954 52.79774652 19.55098213 52.86007404 20.62100601 C53.06061052 24.07660619 53.25688834 27.53243443 53.453125 30.98828125 C53.5947268 33.44458877 53.73657275 35.90088223 53.87864685 38.35716248 C54.22070565 44.28374394 54.55993393 50.21048327 54.89771873 56.13730949 C55.17213625 60.95126297 55.44779429 65.765144 55.72427368 70.57897949 C56.82345837 89.71890822 57.91464423 108.85928208 59 128 C59.06574974 129.15917686 59.13149948 130.31835373 59.19924164 131.51265717 C61.67317385 175.14055719 64.06233256 218.77203067 66.30895996 262.41223145 C67.47761251 285.11046662 68.67768471 307.80662858 69.9375 330.5 C69.99730734 331.57829952 69.99730734 331.57829952 70.05832291 332.67838287 C71.12127538 351.82955774 72.22886534 370.97792938 73.36328125 390.125 C73.44991437 391.58882866 73.44991437 391.58882866 73.53829765 393.08222961 C74.10853421 402.71719179 74.68022908 412.35205762 75.26027203 421.98643494 C75.47378604 425.53915597 75.68547245 429.09198446 75.89679527 432.64483643 C75.99557254 434.29776161 76.09520103 435.95063619 76.19574928 437.60345459 C76.33415606 439.87939322 76.46963983 442.15548902 76.60449219 444.43164062 C76.68125183 445.70672485 76.75801147 446.98180908 76.83709717 448.29553223 C77.00851491 452.19363215 77 456.09813288 77 460 C65.45 460 53.9 460 42 460 C41.29141104 440.94831557 41.29141104 440.94831557 40.98242188 432.62304688 C40.77422663 427.01358231 40.56596035 421.40412047 40.35717773 415.79467773 C39.54102644 393.86406555 38.74435531 371.93318809 38 350 C29.75 350 21.5 350 13 350 C13.01281006 352.45066895 13.02562012 354.90133789 13.03881836 357.42626953 C13.05447198 366.35669057 12.75838258 375.25865988 12.37890625 384.1796875 C12.31377008 385.76896067 12.24891149 387.35824525 12.18431091 388.94754028 C12.0493767 392.25011137 11.9122243 395.55257934 11.77319336 398.85498047 C11.59749787 403.0288147 11.4257773 407.20279985 11.25548744 411.37685776 C10.59359108 427.58966928 9.90790602 443.79872557 9 460 C-2.22 460 -13.44 460 -25 460 C-25.07819495 447.85053971 -24.85964137 435.8242921 -24.13305664 423.70043945 C-24.03862432 422.05544527 -23.94468491 420.41042273 -23.85118771 418.76537514 C-23.64955214 415.23576169 -23.44454792 411.70636673 -23.23681641 408.17710686 C-22.90029234 402.45884611 -22.57166842 396.74014571 -22.24389648 391.02137756 C-21.76980942 382.76242627 -21.29233494 374.50367719 -20.81253052 366.24505615 C-19.60299258 345.41946148 -18.41302616 324.59274157 -17.22342944 303.76599979 C-17.030586 300.39072204 -16.83755108 297.01545528 -16.64448738 293.64019012 C-13.57890944 240.02664579 -10.70626077 186.40323293 -7.8643204 132.77744949 C-6.28707539 103.01597159 -4.70607361 73.25468834 -3.07314873 43.49620438 C-2.8981041 40.30460317 -2.72445616 37.11293096 -2.55208015 33.92118454 C-2.35191973 30.2165085 -2.14878248 26.5120077 -1.94331288 22.80762243 C-1.83334616 20.81226401 -1.7263573 18.81674216 -1.61946678 16.82121658 C-1.55240343 15.62359066 -1.48534008 14.42596474 -1.41624451 13.19204712 C-1.35965888 12.15888178 -1.30307325 11.12571644 -1.24477291 10.06124306 C-0.97542685 6.69267683 -0.47790764 3.34535349 0 0 Z " fill="#3C506A" transform="translate(249,391)"/>
<path d="M0 0 C8.83537821 8.31998115 14.32676086 19.78025189 14.81054783 31.89339256 C14.80962604 32.99401339 14.80870424 34.09463421 14.80775452 35.22860718 C14.80981651 37.13416382 14.80981651 37.13416382 14.81192017 39.07821655 C14.80838172 40.47320581 14.80474692 41.86819482 14.80102539 43.26318359 C14.80074312 44.7418823 14.80090204 46.22058116 14.8014679 47.69927979 C14.8017543 51.70294137 14.79588291 55.70657288 14.78889394 59.71022749 C14.7826343 63.8982576 14.78205453 68.08628844 14.78086853 72.27432251 C14.77776291 80.20022281 14.76955989 88.12610928 14.75951904 96.0520035 C14.74833401 105.07736201 14.74284143 114.10272118 14.73782361 123.1280849 C14.72737664 141.68956602 14.70904072 160.2510282 14.6875 178.8125 C3.1375 178.8125 -8.4125 178.8125 -20.3125 178.8125 C-20.32708252 174.20909668 -20.34166504 169.60569336 -20.35668945 164.86279297 C-20.40698532 149.66752876 -20.4734209 134.47236696 -20.54821491 119.27720451 C-20.59317525 110.06274433 -20.63258938 100.84832282 -20.65893555 91.63378906 C-20.68191368 83.60214395 -20.71530966 75.57062119 -20.76120156 67.53907311 C-20.78513628 63.28664913 -20.80386342 59.03434634 -20.81011391 54.78185654 C-20.81616365 50.7779517 -20.83615937 46.77435696 -20.86677551 42.77056694 C-20.87555752 41.30245683 -20.87927797 39.83430619 -20.87750816 38.36617088 C-20.87585213 36.35824448 -20.89434202 34.35033185 -20.91377258 32.34249878 C-20.91838155 31.21975492 -20.92299051 30.09701107 -20.92773914 28.94024467 C-21.53150881 24.03216393 -23.21908107 20.79924392 -26.875 17.5 C-31.82857405 14.07060258 -36.39982123 14.20285939 -42.3125 14.8125 C-46.29424566 16.80337283 -49.03294197 18.97324436 -51.3125 22.8125 C-52.48489233 26.35576552 -52.44116019 29.73872246 -52.44672108 33.45120621 C-52.44907331 34.12033242 -52.45142554 34.78945863 -52.45384905 35.47886139 C-52.46052974 37.73106137 -52.46008111 39.98320354 -52.45967102 42.2354126 C-52.46297021 43.86246031 -52.4666959 45.48950721 -52.4708125 47.11655307 C-52.4808341 51.59569366 -52.48454954 56.07482084 -52.48720181 60.55397105 C-52.49110431 65.38164385 -52.50068259 70.20930603 -52.50941467 75.03697205 C-52.52917918 86.69877117 -52.53924465 98.36057117 -52.54814246 110.02238286 C-52.55252482 115.51238698 -52.55789172 121.00239013 -52.56313133 126.49239349 C-52.58014254 144.73870773 -52.59463764 162.98502137 -52.60188007 181.23134232 C-52.60379 185.96656546 -52.60571033 190.7017886 -52.60766602 195.43701172 C-52.60839163 197.20241024 -52.60839163 197.20241024 -52.6091319 199.00347337 C-52.61743569 218.07733086 -52.64277899 237.1511257 -52.67524669 256.22495583 C-52.70829882 275.80145718 -52.72632711 295.37792668 -52.72952431 314.95445609 C-52.73169097 325.9485206 -52.74046255 336.94249372 -52.76598549 347.93653107 C-52.78766714 357.29758759 -52.79575534 366.65853052 -52.78601871 376.0196093 C-52.78146685 380.79629552 -52.78341173 385.57274725 -52.80278015 390.34940147 C-52.82036111 394.72296077 -52.81945544 399.09611363 -52.80388286 403.46967694 C-52.80149909 405.05112082 -52.80587015 406.63259247 -52.81771151 408.21399382 C-52.91403762 419.60216437 -52.91403762 419.60216437 -48.3125 429.8125 C-44.78381715 433.17315034 -42.06317876 434.07167122 -37.3125 434.25 C-32.96909581 434.04130791 -29.88712855 433.45091631 -26.3125 430.8125 C-24.68206287 428.54771274 -23.55314417 426.33973812 -22.3125 423.8125 C-21.9825 423.1525 -21.6525 422.4925 -21.3125 421.8125 C-21.20488425 419.30651643 -21.1576068 416.82758032 -21.15428162 414.32089233 C-21.14934364 413.53922498 -21.14440566 412.75755763 -21.13931805 411.95220339 C-21.12389421 409.31888651 -21.11556925 406.6855941 -21.10717773 404.05224609 C-21.09760305 402.17019941 -21.08759321 400.2881549 -21.07717896 398.40611267 C-21.05007946 393.28450745 -21.02909726 388.16289297 -21.00917697 383.04125547 C-20.98734847 377.69339009 -20.95994447 372.34555342 -20.93312073 366.99771118 C-20.88315134 356.86528523 -20.8382283 346.73284338 -20.79509836 336.60038626 C-20.74576222 325.06728764 -20.69083068 313.53421782 -20.63541877 302.00114703 C-20.52153356 278.27162468 -20.41490729 254.54207442 -20.3125 230.8125 C-8.7625 230.8125 2.7875 230.8125 14.6875 230.8125 C14.73273098 254.41367724 14.76953806 278.01481913 14.79112434 301.61602879 C14.80141577 312.57565938 14.81543512 323.53526103 14.83837891 334.49487305 C14.8583783 344.0526295 14.87123193 353.61036498 14.87567699 363.16814178 C14.87827331 368.22401937 14.88433091 373.27983699 14.89896011 378.33569527 C14.91264775 383.10529247 14.9167003 387.87480564 14.91371536 392.64442062 C14.91426057 394.38452424 14.91817084 396.124631 14.92591095 397.86471748 C15.00145579 415.74202722 14.86489842 433.42674652 1.875 447.3125 C-11.89663191 459.75225262 -27.02008551 461.46064174 -44.81933594 460.94873047 C-58.43454442 460.20477372 -69.17589795 453.6316326 -78.3125 443.8125 C-88.62327862 429.50496596 -88.61984382 413.3655702 -88.57319641 396.34635925 C-88.57622553 394.75234004 -88.58011879 393.15832228 -88.58478898 391.56430703 C-88.59497883 387.23206186 -88.59291051 382.89990027 -88.58860838 378.56764853 C-88.58612478 373.87714177 -88.59517518 369.18665431 -88.60264587 364.49615479 C-88.61534724 355.32780486 -88.61719249 346.15948428 -88.61484561 336.99112704 C-88.6130581 329.53831979 -88.61482134 322.08552141 -88.61907005 314.63271523 C-88.61966524 313.56954494 -88.62026043 312.50637465 -88.62087366 311.41098708 C-88.62208547 309.25082967 -88.6232996 307.09067226 -88.62451603 304.93051485 C-88.63537281 284.70936533 -88.63323721 264.48823252 -88.62713119 244.26708207 C-88.62195691 225.77801056 -88.63323426 207.28899165 -88.65222941 188.79993054 C-88.67160793 169.79142731 -88.67986421 150.78294898 -88.67610615 131.77443582 C-88.67419501 121.11191182 -88.67667385 110.44943266 -88.69082069 99.78691673 C-88.70273519 90.71573212 -88.70413813 81.64461999 -88.69203053 72.57343438 C-88.68614398 67.94822971 -88.68503652 63.32315763 -88.69703293 58.69796181 C-88.7078976 54.45985448 -88.70478151 50.22199036 -88.69077124 45.98389439 C-88.68812607 44.45525041 -88.69048519 42.92658733 -88.69850711 41.39796212 C-88.76965289 26.82314988 -86.38591304 13.34311907 -76.3125 2.125 C-55.57550456 -16.74748489 -21.86853933 -17.50322629 0 0 Z " fill="#3E526C" transform="translate(992.3125,399.1875)"/>
<path d="M0 0 C8.82924255 7.77149635 14.40794991 18.96357109 15.18054581 30.75566101 C15.24534367 34.02756792 15.2473575 37.29391038 15.22705078 40.56640625 C15.22734283 41.80627792 15.22763489 43.0461496 15.22793579 44.32359314 C15.22678641 47.70120836 15.21679992 51.07857497 15.20278788 54.45614624 C15.19023147 57.99419411 15.18910616 61.53224578 15.18673706 65.0703125 C15.18053666 71.76015389 15.16414546 78.44992942 15.14403808 85.1397419 C15.12163411 92.76008753 15.11067437 100.38043641 15.10064721 108.00080681 C15.07977784 123.6672491 15.04311975 139.33360074 15 155 C3.45 155 -8.1 155 -20 155 C-20.01458252 151.18945068 -20.02916504 147.37890137 -20.04418945 143.45288086 C-20.09452238 130.86398803 -20.16096533 118.2752235 -20.23571491 105.68645382 C-20.28064289 98.05375997 -20.32006441 90.42111246 -20.34643555 82.78833008 C-20.36943998 76.13406707 -20.40286518 69.4799511 -20.44870156 62.82580477 C-20.472601 59.30384533 -20.49135117 55.78203122 -20.49761391 52.2599926 C-20.50480804 48.32412666 -20.53527163 44.38862427 -20.56762695 40.45288086 C-20.56619186 39.290504 -20.56475677 38.12812714 -20.5632782 36.93052673 C-20.64285719 30.0871173 -21.04876059 24.72112795 -25.4375 19.1875 C-30.56753204 15.28867565 -35.75562328 15.25791465 -42 16 C-45.96146722 17.98073361 -48.77914453 20.14272472 -51 24 C-52.08992022 28.1677686 -52.15423854 32.26653129 -52.16113281 36.54638672 C-52.16609772 37.29045776 -52.17106262 38.03452881 -52.17617798 38.80114746 C-52.19076169 41.26067041 -52.19760278 43.72012841 -52.203125 46.1796875 C-52.20595238 47.02899967 -52.20877975 47.87831184 -52.21169281 48.75336075 C-52.22668623 53.26672931 -52.23590898 57.78006603 -52.24023438 62.29345703 C-52.24458564 65.9823616 -52.25834514 69.67102788 -52.28125 73.35986328 C-52.7607299 109.22288909 -52.7607299 109.22288909 -45.8125 144.25 C-45.51134277 145.23613281 -45.21018555 146.22226562 -44.89990234 147.23828125 C-38.05849938 169.02395067 -27.5244 187.58361078 -14.75976562 206.40112305 C8.90786836 241.30159264 15.53771692 277.06621844 15.328125 318.59765625 C15.32347123 321.29276002 15.32308889 323.98786083 15.32244873 326.68296814 C15.31879296 332.28764469 15.3040078 337.89219606 15.28125 343.49682617 C15.2522543 350.65141119 15.24200693 357.80589667 15.2375679 364.9605341 C15.23399675 370.50865179 15.22377038 376.05675148 15.21169281 381.60485649 C15.20603216 384.24285138 15.20125998 386.88084834 15.19742584 389.51884651 C15.19049368 393.20669418 15.17683244 396.89445583 15.16113281 400.58227539 C15.16001495 401.65111465 15.15889709 402.71995392 15.15774536 403.82118225 C15.06912863 419.66654114 14.33832876 434.80349498 3 447 C2.37609375 447.67675781 1.7521875 448.35351562 1.109375 449.05078125 C-9.68061931 459.66094232 -22.95455703 462.25580559 -37.53271484 462.2487793 C-52.85878356 462.04507653 -64.46847928 458.01704434 -75.703125 447.4453125 C-86.66478576 435.77524509 -87.45201747 421.60989124 -87.34057617 406.39941406 C-87.33972816 404.76219702 -87.34020844 403.12497884 -87.34190369 401.48776245 C-87.34275826 397.07942064 -87.32522049 392.67132778 -87.30418181 388.2630434 C-87.28532452 383.6426402 -87.28365748 379.02223019 -87.28010559 374.40179443 C-87.27081157 365.66856198 -87.24623386 356.93544328 -87.21605712 348.20226073 C-87.18243047 338.2529738 -87.16600639 328.30368121 -87.15097082 318.35435152 C-87.1196817 297.90282358 -87.06470298 277.45145141 -87 257 C-75.78 257 -64.56 257 -53 257 C-52.9906543 261.9512085 -52.98130859 266.90241699 -52.97167969 272.00366211 C-52.93791621 288.36040926 -52.88257143 304.71703074 -52.81609726 321.07367611 C-52.77632015 330.99093325 -52.74392089 340.90811119 -52.72900391 350.82543945 C-52.71598053 359.47130581 -52.68899829 368.1169978 -52.64538693 376.76276594 C-52.62278759 381.33892943 -52.6070884 385.91487798 -52.60811615 390.49110222 C-52.60886366 394.80286496 -52.59087636 399.11415286 -52.55883217 403.42579269 C-52.5503488 405.003909 -52.5485726 406.58207866 -52.55419731 408.16020775 C-52.65632291 420.15291449 -52.65632291 420.15291449 -48 431 C-44.65496209 434.18945475 -42.08361488 435.23758676 -37.5625 435.4375 C-32.33426306 435.18181894 -27.9329838 433.99963842 -24.1875 430.125 C-20.87685226 424.20068299 -20.71356018 419.34500726 -20.74121094 412.66796875 C-20.7377063 411.628078 -20.73420166 410.58818726 -20.73059082 409.51678467 C-20.72178121 406.07362202 -20.72762691 402.63066482 -20.734375 399.1875 C-20.7330265 396.77872682 -20.73108443 394.3699539 -20.72857666 391.96118164 C-20.72562509 386.90052715 -20.72991816 381.83994317 -20.73925781 376.77929688 C-20.75055452 370.35025795 -20.74415576 363.92138784 -20.73211288 357.49235535 C-20.72481114 352.50747457 -20.72722158 347.52263232 -20.73236847 342.53775024 C-20.73368724 340.17151875 -20.73212068 337.80528357 -20.72740936 335.4390564 C-20.69710938 315.91400778 -21.54973572 296.70743668 -25.625 277.5625 C-25.88297363 276.34022705 -26.14094727 275.1179541 -26.40673828 273.85864258 C-30.2296604 256.57655363 -36.52824782 240.50747015 -45 225 C-45.59039062 223.90429688 -46.18078125 222.80859375 -46.7890625 221.6796875 C-50.3410431 215.28612242 -54.17997891 209.13319405 -58.14819336 202.99243164 C-78.79761608 171.01781466 -87.52429685 139.44367812 -87.3984375 101.5234375 C-87.40046529 99.33395288 -87.40338254 97.14446892 -87.40713501 94.95498657 C-87.41151589 90.40856373 -87.40525946 85.86231975 -87.39111328 81.31591797 C-87.37392126 75.51054044 -87.38395265 69.7055761 -87.40183067 63.90021324 C-87.41269673 59.39617828 -87.40921095 54.89224063 -87.4014473 50.38820267 C-87.39945839 48.24733047 -87.40185807 46.1064492 -87.40888596 43.96558762 C-87.41655867 40.97600731 -87.40481954 37.98708986 -87.38818359 34.99755859 C-87.39425629 34.1298584 -87.40032898 33.2621582 -87.40658569 32.36816406 C-87.28615925 20.60579762 -83.07077672 10.08111876 -74.70703125 1.703125 C-53.99305489 -15.81648617 -21.678959 -15.88951276 0 0 Z " fill="#3D516B" transform="translate(430,398)"/>
<path d="M0 0 C0.64582031 0.45117188 1.29164063 0.90234375 1.95703125 1.3671875 C10.83902891 8.21735563 15.27869991 19.18878611 17 30 C17.26790872 34.19831186 17.25344275 38.38249729 17.22705078 42.58813477 C17.22734283 43.8183989 17.22763489 45.04866302 17.22793579 46.31620789 C17.22678773 49.66277447 17.21681246 53.00908905 17.20278788 56.35561109 C17.19021774 59.86295648 17.18910509 63.37030584 17.18673706 66.87767029 C17.18054065 73.50727157 17.16415493 80.13680627 17.14403808 86.76637834 C17.12162158 94.31903371 17.11067124 101.87169239 17.10064721 109.42437279 C17.0797869 124.9496269 17.04313388 140.47478937 17 156 C5.45 156 -6.1 156 -18 156 C-18.01458252 152.1539209 -18.02916504 148.3078418 -18.04418945 144.34521484 C-18.0945032 131.64455673 -18.16094232 118.94402605 -18.23571491 106.24349022 C-18.28065966 98.54238631 -18.32007734 90.84132852 -18.34643555 83.14013672 C-18.36942637 76.42692024 -18.40283642 69.71384983 -18.44870156 63.00074923 C-18.47261932 59.44696367 -18.4913575 55.89332265 -18.49761391 52.33945847 C-18.50479757 48.3698619 -18.53524528 44.40062725 -18.56762695 40.43115234 C-18.56619186 39.25582947 -18.56475677 38.08050659 -18.5632782 36.86956787 C-18.65154583 29.0156933 -18.65154583 29.0156933 -22 22 C-27.17683002 17.32822657 -30.39353498 16.6521659 -37.234375 16.71484375 C-42.01412146 17.20767072 -44.63578712 19.54170347 -47.8125 22.9375 C-50.42471713 27.4745087 -50.15304147 32.55202598 -50.16113281 37.65405273 C-50.16609772 38.40948364 -50.17106262 39.16491455 -50.17617798 39.9432373 C-50.19076127 42.44003224 -50.19760209 44.93676322 -50.203125 47.43359375 C-50.20595238 48.29518663 -50.20877975 49.15677952 -50.21169281 50.04448128 C-50.22668478 54.62153553 -50.23590891 59.19855839 -50.24023438 63.77563477 C-50.24458908 67.51987617 -50.25836245 71.26388326 -50.28125 75.00805664 C-50.43055198 99.9109484 -50.45125006 123.978461 -43 148 C-42.65324219 149.18207031 -42.30648437 150.36414063 -41.94921875 151.58203125 C-36.22493231 170.05318234 -26.90501167 186.44112498 -16.05078125 202.328125 C-4.2519534 219.6253621 4.52686756 237.05166969 11 257 C11.34804688 258.0725 11.69609375 259.145 12.0546875 260.25 C17.5845493 279.86105627 17.4409864 300.66165824 17.36328125 320.84375 C17.36128972 323.55505546 17.36323399 326.26635571 17.36479187 328.97766113 C17.36566571 334.61504185 17.35478023 340.25230022 17.33618164 345.88964844 C17.31494539 352.36266408 17.31152721 358.83550211 17.3177436 365.30854559 C17.32347652 371.60633987 17.31775094 377.90407306 17.30657005 384.20185852 C17.30198406 386.85218621 17.3015561 389.50241306 17.3031559 392.15275574 C17.30753328 435.47513684 17.30753328 435.47513684 4.1875 449.5 C-9.58413191 461.93975262 -24.70758551 463.64814174 -42.50683594 463.13623047 C-56.12204442 462.39227372 -66.86339795 455.8191326 -76 446 C-82.41474403 437.09871602 -85.12850735 428.9147692 -85.12025452 417.93850708 C-85.12110894 417.25142729 -85.12196337 416.56434749 -85.12284368 415.8564471 C-85.12448337 413.56719424 -85.11900199 411.27801558 -85.11352539 408.98876953 C-85.11324317 407.34258526 -85.11340194 405.69640087 -85.1139679 404.05021667 C-85.11425449 399.58995936 -85.10837993 395.129729 -85.10139394 390.66947794 C-85.09513756 386.00498498 -85.09455479 381.34049138 -85.09336853 376.67599487 C-85.09026195 367.84698809 -85.08205763 359.01799371 -85.07201904 350.18899238 C-85.060837 340.13584185 -85.05534218 330.08269073 -85.05032361 320.02953553 C-85.03987447 299.35301523 -85.02153734 278.67651193 -85 258 C-73.78 258 -62.56 258 -51 258 C-50.9906543 262.9512085 -50.98130859 267.90241699 -50.97167969 273.00366211 C-50.93791621 289.36040926 -50.88257143 305.71703074 -50.81609726 322.07367611 C-50.77632015 331.99093325 -50.74392089 341.90811119 -50.72900391 351.82543945 C-50.71598053 360.47130581 -50.68899829 369.1169978 -50.64538693 377.76276594 C-50.62278759 382.33892943 -50.6070884 386.91487798 -50.60811615 391.49110222 C-50.60886366 395.80286496 -50.59087636 400.11415286 -50.55883217 404.42579269 C-50.5503488 406.003909 -50.5485726 407.58207866 -50.55419731 409.16020775 C-50.64902112 421.14966815 -50.64902112 421.14966815 -46 432 C-42.49532353 435.4212318 -39.76412101 436.25151329 -35 436.4375 C-30.65659581 436.22880791 -27.57462855 435.63841631 -24 433 C-22.36956287 430.73521274 -21.24064417 428.52723812 -20 426 C-19.67 425.34 -19.34 424.68 -19 424 C-18.90404147 422.59238622 -18.86934445 421.18034769 -18.86628723 419.76947021 C-18.86202225 418.88137161 -18.85775726 417.99327301 -18.85336304 417.07826233 C-18.85381622 416.10078537 -18.85426941 415.12330841 -18.85473633 414.11621094 C-18.85137772 413.08811813 -18.8480191 412.06002533 -18.84455872 411.0007782 C-18.83501205 407.57863167 -18.83310246 404.15653405 -18.83203125 400.734375 C-18.82881662 398.34613017 -18.82545239 395.95788553 -18.82194519 393.56964111 C-18.81594146 388.54235378 -18.8141061 383.51508364 -18.81469727 378.48779297 C-18.81479791 372.10473911 -18.80125391 365.72179896 -18.78392506 359.33877182 C-18.77268624 354.39159664 -18.77078181 349.44444768 -18.77130699 344.49726105 C-18.77014051 342.14859889 -18.76579533 339.79993574 -18.75797462 337.45128632 C-18.69665468 317.09892508 -19.44562154 296.90982497 -24 277 C-24.16338867 276.27280762 -24.32677734 275.54561523 -24.49511719 274.79638672 C-30.78059312 247.42958717 -43.54999695 223.59426367 -58.6953125 200.1640625 C-78.53814061 169.3617307 -85.1550807 138.36282212 -85.16796875 102.0234375 C-85.17118714 99.88595559 -85.17455164 97.74847389 -85.17805481 95.61099243 C-85.1840178 91.14788299 -85.18589746 86.68479283 -85.18530273 82.22167969 C-85.18520088 76.51804776 -85.19888968 70.81453966 -85.21607494 65.11093712 C-85.22721616 60.70302771 -85.22922134 56.29514815 -85.22869301 51.8872261 C-85.22986851 49.78459875 -85.234266 47.68197051 -85.24202538 45.57935715 C-85.25187507 42.63663868 -85.24892837 39.69418806 -85.24291992 36.75146484 C-85.24853943 35.89408218 -85.25415894 35.03669952 -85.25994873 34.15333557 C-85.1994897 22.43988823 -81.8888907 12.99552788 -74.25390625 3.92578125 C-54.87524438 -14.61938979 -21.28273264 -15.2074104 0 0 Z " fill="#3D516B" transform="translate(803,397)"/>
<path d="M0 0 C11.22 0 22.44 0 34 0 C36.60501122 32.49858264 39.12938067 64.99330333 41.2366333 97.52853394 C42.73741433 120.6531227 44.45438972 143.75762873 46.25 166.86083984 C46.45082308 169.45538027 46.6513483 172.04994377 46.8515625 174.64453125 C46.94850403 175.89913147 47.04544556 177.15373169 47.14532471 178.4463501 C47.65739865 185.17073782 48.13277419 191.89608846 48.55761719 198.62646484 C48.60256254 199.33741019 48.6475079 200.04835554 48.69381523 200.78084469 C48.90872667 204.19953262 49.11833862 207.61840708 49.32192993 211.03779602 C49.3966452 212.25597519 49.47136047 213.47415436 49.54833984 214.72924805 C49.61177582 215.7980571 49.67521179 216.86686615 49.74057007 217.96806335 C50.00165472 221.01933861 50.4550883 223.98758192 51 227 C51.04931671 226.25945374 51.09863342 225.51890747 51.14944458 224.75592041 C53.70748307 186.37332321 56.3224006 147.9950661 59.0625 109.625 C59.12580631 108.73826977 59.18911263 107.85153954 59.25433731 106.93793869 C61.02234743 82.18829609 62.83627995 57.4429104 64.79516602 32.70751953 C64.87047546 31.75057693 64.94578491 30.79363434 65.02337646 29.80769348 C65.15735547 28.10842224 65.29266191 26.4092545 65.42999268 24.71025085 C66.07919935 16.47721283 66.51465744 8.25082358 67 0 C78.55 0 90.1 0 102 0 C100.88243028 13.71562841 99.38714361 27.34745769 97.6875 41 C95.82523218 55.96622137 94.10216329 70.94121364 92.5 85.9375 C90.92815688 100.63738056 89.27564892 115.32332527 87.5 130 C85.72734667 144.6560692 84.07313006 159.32118777 82.5 174 C81.22985177 185.85071918 79.94919779 197.69862178 78.51597023 209.53091145 C77.99990742 213.79277392 77.48830621 218.05501792 76.99172974 222.31919861 C76.01858955 230.64807448 75.01791192 238.96738983 73.85821629 247.27260971 C68.12810234 288.76592107 68.08782032 330.08669355 68.12245578 371.89491576 C68.12924292 381.53320972 68.10123081 391.17132485 68.07130075 400.80956352 C68.01076018 420.53978785 67.99530558 440.26967593 68 460 C56.45 460 44.9 460 33 460 C33.00636475 455.10381836 33.01272949 450.20763672 33.01928711 445.16308594 C33.03545596 428.71886656 33.01270731 412.27485519 32.97153378 395.83068466 C32.94754554 385.89126016 32.93571057 375.95213704 32.95532227 366.01269531 C33.03370258 322.81744377 32.56309086 280.39117167 26.34110641 237.57673454 C24.68710903 226.14736067 23.48185389 214.67399181 22.28474045 203.18924332 C20.24781986 183.74781455 17.99324167 164.33616271 15.62573242 144.93258667 C13.45503614 127.11774185 11.48030771 109.28563672 9.56164551 91.44204712 C7.64346447 73.62483086 5.58116426 55.83128453 3.35935974 38.04945374 C2.90040183 34.3670081 2.44798697 30.68379561 2 27 C1.90404541 26.21369202 1.80809082 25.42738403 1.70922852 24.61724854 C1.419741 22.22078121 1.1384081 19.8234862 0.859375 17.42578125 C0.72925018 16.35604317 0.72925018 16.35604317 0.59649658 15.26469421 C0.00497265 10.07809383 0 5.30176498 0 0 Z " fill="#3D516B" transform="translate(105,391)"/>
<path d="M0 0 C5.0037621 2.2824178 7.29887951 5.27830458 10 10 C10.50139666 13.28797328 10.50139666 13.28797328 10.50336456 16.93165398 C10.51208521 17.94640251 10.51208521 17.94640251 10.52098203 18.98165101 C10.53557352 21.24723605 10.52170187 23.5117362 10.50793457 25.77731323 C10.51254387 27.4184662 10.51889698 29.05961504 10.52684355 30.70075524 C10.5435565 35.20969289 10.53528156 39.71829232 10.52289867 44.22723126 C10.5138584 49.09033336 10.52781293 53.95337679 10.53881836 58.81646729 C10.5566199 68.34349249 10.55275608 77.87039176 10.5411678 87.39742194 C10.53213912 95.14035649 10.53090703 102.8832557 10.53526306 110.626194 C10.53587599 111.72766505 10.53648893 112.8291361 10.53712043 113.96398506 C10.53839932 116.20153602 10.53969617 118.43908697 10.5410108 120.6766379 C10.55242166 141.66690259 10.5392955 162.65709745 10.51780933 183.64735068 C10.49994288 201.65897842 10.50303777 219.67050303 10.52148438 237.68212891 C10.5428907 258.59350251 10.55131773 279.50481486 10.53903532 300.4161979 C10.53776112 302.64619008 10.53650363 304.87618227 10.53526306 307.10617447 C10.53464596 308.20339473 10.53402886 309.300615 10.53339306 310.43108436 C10.52993908 318.16392913 10.53576965 325.89673506 10.54518127 333.62957382 C10.5564002 343.05464708 10.5533636 352.47958708 10.5320583 361.90464507 C10.52154574 366.71373523 10.51742956 371.52260323 10.53065491 376.33169174 C10.54258059 380.73479943 10.53601333 385.13747919 10.5147447 389.5405481 C10.51027933 391.13269007 10.51254349 392.72486825 10.52224785 394.3169869 C10.60590067 409.18252818 10.60590067 409.18252818 6 416 C1.12049493 420.64148043 -2.96743897 421.36287198 -9.49609375 421.27734375 C-13.23996028 420.86265651 -15.23327627 419.50322623 -18 417 C-22.03563147 411.65551508 -23.12439319 408.05118024 -23.13422108 401.43190289 C-23.13657331 400.7582662 -23.13892554 400.08462952 -23.14134905 399.39057961 C-23.14804418 397.11703441 -23.14758067 394.8435463 -23.14717102 392.56999207 C-23.15046931 390.93000762 -23.15419481 389.29002399 -23.1583125 387.6500414 C-23.16834433 383.13057553 -23.17205118 378.61112294 -23.17470181 374.09164751 C-23.17860128 369.22241358 -23.18817978 364.35319021 -23.19691467 359.48396301 C-23.21668779 347.71942002 -23.22674575 335.95487616 -23.23564246 324.1903207 C-23.24002343 318.65373345 -23.24539068 313.11714717 -23.25063133 307.58056068 C-23.26764343 289.18244596 -23.28213889 270.78433183 -23.28938007 252.38621044 C-23.29129004 247.61058234 -23.29321037 242.83495425 -23.29516602 238.05932617 C-23.29564976 236.87233186 -23.2961335 235.68533755 -23.2966319 234.46237371 C-23.30493702 215.22220536 -23.33028215 195.98209909 -23.36274669 176.74195787 C-23.39578632 157.00051602 -23.41382597 137.25910577 -23.41702431 117.51763612 C-23.41919214 106.42860555 -23.4279807 95.33966553 -23.45348549 84.25066185 C-23.4751501 74.80937498 -23.4832638 65.36820067 -23.47351871 55.92689177 C-23.46896186 51.10793052 -23.47094041 46.2892017 -23.49028015 41.47027206 C-23.50782585 37.06038679 -23.50698444 32.65090499 -23.49138286 28.24101595 C-23.48899368 26.64410012 -23.49339781 25.04715699 -23.50521151 23.45028307 C-23.52026431 21.28156953 -23.51070592 19.11429791 -23.49498463 16.94562054 C-23.49596144 15.74049555 -23.49693824 14.53537055 -23.49794465 13.29372662 C-22.72955691 8.21111522 -20.17592011 5.14576831 -16.5625 1.625 C-11.10238421 -0.86557913 -5.90088116 -0.73667051 0 0 Z " fill="#AAC3E0" transform="translate(1098,413)"/>
<path d="M0 0 C0.33 0 0.66 0 1 0 C2.75129754 33.34594864 4.27102347 66.69323482 5.5 100.0625 C5.74784097 106.79169861 5.99592203 113.52088756 6.24609375 120.25 C6.27692677 121.07941101 6.30775978 121.90882202 6.33952713 122.7633667 C6.99631567 140.36691829 7.76595439 157.96479628 8.5625 175.5625 C9.60506439 198.59853974 10.55181235 221.63599996 11.35375977 244.68188477 C11.69833126 254.49012678 12.10288162 264.28546862 12.68226624 274.08276367 C12.99085609 279.43708265 13.12541412 284.7633804 13.0625 290.125 C13.041875 292.72375 13.02125 295.3225 13 298 C4.75 298 -3.5 298 -12 298 C-11.02374467 257.99922223 -9.32994195 218.03081699 -7.53210068 178.05957794 C-6.62694068 157.93253194 -5.78162925 137.80365228 -4.98828125 117.671875 C-4.9448484 116.57026409 -4.90141556 115.46865318 -4.85666656 114.33366013 C-4.42280491 103.31868735 -3.9922651 92.3035899 -3.56698608 81.28828239 C-2.51942979 54.1846593 -1.34444924 27.09057838 0 0 Z " fill="#A8C1DE" transform="translate(649,417)"/>
<path d="M0 0 C0.33 0 0.66 0 1 0 C1.7250533 6.02084406 2.20554597 11.9739465 2.41723633 18.03271484 C2.45005644 18.89440025 2.48287655 19.75608566 2.51669121 20.64388275 C2.62478747 23.49946434 2.72833382 26.35519309 2.83203125 29.2109375 C2.90897436 31.25824286 2.98627926 33.30553466 3.06391907 35.35281372 C3.22969079 39.73506976 3.39375829 44.11738467 3.55645752 48.49975586 C3.99076255 60.18507946 4.43770776 71.86992091 4.88671875 83.5546875 C4.93238983 84.74482704 4.97806091 85.93496658 5.02511597 87.16117096 C5.96553048 111.61169023 7.02688123 136.05612702 8.125 160.5 C9.33686402 187.49658 10.49732618 214.49116905 11.40478516 241.5 C11.47146835 243.47005925 11.53835394 245.44011166 11.60546875 247.41015625 C11.63659256 248.3267804 11.66771637 249.24340454 11.69978333 250.18780518 C11.93343618 256.78749322 12.2880883 263.37554843 12.67910767 269.96751404 C13.00863533 275.69349879 13.12179877 281.39138573 13.0625 287.125 C13.041875 290.05375 13.02125 292.9825 13 296 C4.75 296 -3.5 296 -12 296 C-11.87496094 292.63167969 -11.74992187 289.26335937 -11.62109375 285.79296875 C-11.23159466 275.28912574 -10.84496742 264.78517905 -10.4595089 254.28118706 C-10.126095 245.19662144 -9.79174702 236.11209039 -9.45697975 227.02757454 C-9.23902934 221.11191076 -9.02149209 215.19623242 -8.80493164 209.28051758 C-6.94954895 158.61679872 -4.79715165 107.96909411 -2.54486084 57.32159424 C-2.25599102 50.82249031 -1.96787766 44.32335284 -1.6796875 37.82421875 C-1.12050304 25.21611419 -0.56052783 12.6080449 0 0 Z " fill="#A8C1DE" transform="translate(274,419)"/>
<path d="M0 0 C13.86 0 27.72 0 42 0 C42 13.86 42 27.72 42 42 C28.14 42 14.28 42 0 42 C0 28.14 0 14.28 0 0 Z " fill="#3C506A" transform="translate(837,809)"/>
</svg>
